<?plantuml 1.2026.2?><svg xmlns="http://www.w3.org/2000/svg" xmlns:xlink="http://www.w3.org/1999/xlink" contentStyleType="text/css" data-diagram-type="DESCRIPTION" height="1047px" preserveAspectRatio="none" style="width:637px;height:1047px;background:#FFFFFF;" version="1.1" viewBox="0 0 637 1047" width="637px" zoomAndPan="magnify"><title>Listening Assessment MP3 Splitting System Architecture</title><defs/><g><g class="title" data-source-line="1"><text fill="#000000" font-family="sans-serif" font-size="14" font-weight="bold" lengthAdjust="spacing" textLength="381.2061" x="121.1736" y="26.1533">Listening Assessment MP3 Splitting System Architecture</text></g><!--cluster Audio Processing Service--><g class="cluster" data-qualified-name="Audio Processing Service" data-source-line="14" id="ent0005"><rect fill="none" height="448" rx="2.5" ry="2.5" style="stroke:#181818;stroke-width:1;" width="258" x="7" y="382.7295"/><text fill="#000000" font-family="sans-serif" font-size="14" font-weight="bold" lengthAdjust="spacing" textLength="172.7305" x="49.6348" y="400.8828">Audio Processing Service</text></g><!--entity Engine--><g class="entity" data-qualified-name="Audio Processing Service.Engine" data-source-line="15" id="ent0006"><rect fill="#F1F1F1" height="96.918" rx="2.5" ry="2.5" style="stroke:#181818;stroke-width:0.5;" width="176.4336" x="62" y="420.7295"/><text fill="#000000" font-family="sans-serif" font-size="14" lengthAdjust="spacing" textLength="156.4336" x="72" y="446.8828">Audio Processing Engine</text><text fill="#000000" font-family="sans-serif" font-size="14" lengthAdjust="spacing" textLength="118.2549" x="91.0894" y="466.1123">Waveform analysis</text><text fill="#000000" font-family="sans-serif" font-size="14" lengthAdjust="spacing" textLength="106.627" x="96.9033" y="485.3418">Silence detection</text><text fill="#000000" font-family="sans-serif" font-size="14" lengthAdjust="spacing" textLength="120.6406" x="89.8965" y="504.5713">Boundary detection</text></g><!--entity Timestamp--><g class="entity" data-qualified-name="Audio Processing Service.Timestamp" data-source-line="16" id="ent0007"><rect fill="#F1F1F1" height="39.2295" rx="2.5" ry="2.5" style="stroke:#181818;stroke-width:0.5;" width="201.3027" x="41.5" y="577.7295"/><text fill="#000000" font-family="sans-serif" font-size="14" lengthAdjust="spacing" textLength="181.3027" x="51.5" y="603.8828">Timestamp Inference Module</text></g><!--entity Validation--><g class="entity" data-qualified-name="Audio Processing Service.Validation" data-source-line="17" id="ent0008"><rect fill="#F1F1F1" height="39.2295" rx="2.5" ry="2.5" style="stroke:#181818;stroke-width:0.5;" width="224.6611" x="23.5" y="676.7295"/><text fill="#000000" font-family="sans-serif" font-size="14" lengthAdjust="spacing" textLength="204.6611" x="33.5" y="702.8828">Validation &amp; Quality Check Layer</text></g><!--entity Segmentation--><g class="entity" data-qualified-name="Audio Processing Service.Segmentation" data-source-line="18" id="ent0009"><rect fill="#F1F1F1" height="39.2295" rx="2.5" ry="2.5" style="stroke:#181818;stroke-width:0.5;" width="209.8887" x="31" y="775.7295"/><text fill="#000000" font-family="sans-serif" font-size="14" lengthAdjust="spacing" textLength="189.8887" x="41" y="801.8828">FFmpeg Segmentation Engine</text></g><!--entity ContentTeam--><g class="entity" data-qualified-name="ContentTeam" data-source-line="9" id="ent0002"><ellipse cx="149.855" cy="54.2295" fill="#F1F1F1" rx="8" ry="8" style="stroke:#181818;stroke-width:0.5;"/><path d="M149.855,62.2295 L149.855,89.2295 M136.855,70.2295 L162.855,70.2295 M149.855,89.2295 L136.855,104.2295 M149.855,89.2295 L162.855,104.2295" fill="none" style="stroke:#181818;stroke-width:0.5;"/><text fill="#000000" font-family="sans-serif" font-size="14" lengthAdjust="spacing" textLength="88.71" x="105.5" y="121.8828">Content Team</text></g><!--entity Upload--><g class="entity" data-qualified-name="Upload" data-source-line="11" id="ent0003"><rect fill="#F1F1F1" height="58.459" rx="2.5" ry="2.5" style="stroke:#181818;stroke-width:0.5;" width="188.1094" x="56" y="184.7295"/><text fill="#000000" font-family="sans-serif" font-size="14" lengthAdjust="spacing" textLength="146.3027" x="76.9033" y="210.8828">Admin Upload Interface</text><text fill="#000000" font-family="sans-serif" font-size="14" lengthAdjust="spacing" textLength="168.1094" x="66" y="230.1123">MP3 upload and job trigger</text></g><!--entity StorageInput--><g class="entity" data-qualified-name="StorageInput" data-source-line="12" id="ent0004"><rect fill="#F1F1F1" height="58.459" rx="35" ry="35" style="stroke:#181818;stroke-width:0.5;" width="192.7783" x="53.5" y="302.7295"/><text fill="#000000" font-family="sans-serif" font-size="14" lengthAdjust="spacing" textLength="81.71" x="109.0342" y="328.8828">MP3 Storage</text><text fill="#000000" font-family="sans-serif" font-size="14" lengthAdjust="spacing" textLength="172.7783" x="63.5" y="348.1123">Uploaded source audio files</text></g><!--entity Storage--><g class="entity" data-qualified-name="Storage" data-source-line="21" id="ent0010"><path d="M47.5,884.7295 C47.5,874.7295 136.103,874.7295 136.103,874.7295 C136.103,874.7295 224.7061,874.7295 224.7061,884.7295 L224.7061,912.959 C224.7061,922.959 136.103,922.959 136.103,922.959 C136.103,922.959 47.5,922.959 47.5,912.959 L47.5,884.7295" fill="#F1F1F1" style="stroke:#181818;stroke-width:0.5;"/><path d="M47.5,884.7295 C47.5,894.7295 136.103,894.7295 136.103,894.7295 C136.103,894.7295 224.7061,894.7295 224.7061,884.7295" fill="none" style="stroke:#181818;stroke-width:0.5;"/><text fill="#000000" font-family="sans-serif" font-size="14" lengthAdjust="spacing" textLength="157.2061" x="57.5" y="914.8828">Segmented MP3 Storage</text></g><!--entity App--><g class="entity" data-qualified-name="App" data-source-line="22" id="ent0011"><rect fill="#F1F1F1" height="58.459" rx="2.5" ry="2.5" style="stroke:#181818;stroke-width:0.5;" width="184.9785" x="43.5" y="982.7295"/><text fill="#000000" font-family="sans-serif" font-size="14" lengthAdjust="spacing" textLength="164.9785" x="53.5" y="1008.8828">Listening Assessment App</text><text fill="#000000" font-family="sans-serif" font-size="14" lengthAdjust="spacing" textLength="101.165" x="85.4067" y="1028.1123">Content delivery</text></g><g class="entity" data-qualified-name="GMN20" data-source-line="34" id="ent0021"><path d="M281.5,428.7295 L281.5,465.7295 L238.1,469.7295 L281.5,473.7295 L281.5,510.1533 A0,0 0 0 0 281.5,510.1533 L630.5532,510.1533 A0,0 0 0 0 630.5532,510.1533 L630.5532,438.7295 L620.5532,428.7295 L281.5,428.7295 A0,0 0 0 0 281.5,428.7295" fill="#FEFFDD" style="stroke:#181818;stroke-width:0.5;"/><path d="M620.5532,428.7295 L620.5532,438.7295 L630.5532,438.7295 L620.5532,428.7295" fill="#FEFFDD" style="stroke:#181818;stroke-width:0.5;"/><text fill="#000000" font-family="sans-serif" font-size="13" lengthAdjust="spacing" textLength="97.5444" x="402.7544" y="448.729">Design Decision:</text><text fill="#000000" font-family="sans-serif" font-size="13" lengthAdjust="spacing" textLength="303.4688" x="299.7922" y="466.585">LLM-based timestamp extraction was evaluated first,</text><text fill="#000000" font-family="sans-serif" font-size="13" lengthAdjust="spacing" textLength="328.0532" x="287.5" y="484.4409">but final split points were determined by waveform-based</text><text fill="#000000" font-family="sans-serif" font-size="13" lengthAdjust="spacing" textLength="202.3252" x="350.364" y="502.2969">signal analysis for higher precision.</text></g><!--link ContentTeam to Upload--><g class="link" data-entity-1="ent0002" data-entity-2="ent0003" data-link-type="dependency" data-source-line="24" id="lnk12"><path d="M150,124.8295 C150,144.1495 150,160.9795 150,178.6595" fill="none" id="ContentTeam-to-Upload" style="stroke:#181818;stroke-width:1;"/><polygon fill="#181818" points="150,184.6595,154,175.6595,150,179.6595,146,175.6595,150,184.6595" style="stroke:#181818;stroke-width:1;"/></g><!--link Upload to StorageInput--><g class="link" data-entity-1="ent0003" data-entity-2="ent0004" data-link-type="dependency" data-source-line="25" id="lnk13"><path d="M150,242.8995 C150,261.0495 150,278.3195 150,296.4895" fill="none" id="Upload-to-StorageInput" style="stroke:#181818;stroke-width:1;"/><polygon fill="#181818" points="150,302.4895,154,293.4895,150,297.4895,146,293.4895,150,302.4895" style="stroke:#181818;stroke-width:1;"/></g><!--link StorageInput to Engine--><g class="link" data-entity-1="ent0004" data-entity-2="ent0006" data-link-type="dependency" data-source-line="26" id="lnk14"><path d="M150,360.8895 C150,378.2295 150,394.6695 150,414.6295" fill="none" id="StorageInput-to-Engine" style="stroke:#181818;stroke-width:1;"/><polygon fill="#181818" points="150,420.6295,154,411.6295,150,415.6295,146,411.6295,150,420.6295" style="stroke:#181818;stroke-width:1;"/></g><!--link Engine to Timestamp--><g class="link" data-entity-1="ent0006" data-entity-2="ent0007" data-link-type="dependency" data-source-line="27" id="lnk15"><path d="M150,517.9895 C150,538.7595 150,555.7995 150,571.6595" fill="none" id="Engine-to-Timestamp" style="stroke:#181818;stroke-width:1;"/><polygon fill="#181818" points="150,577.6595,154,568.6595,150,572.6595,146,568.6595,150,577.6595" style="stroke:#181818;stroke-width:1;"/></g><!--link Timestamp to Validation--><g class="link" data-entity-1="ent0007" data-entity-2="ent0008" data-link-type="dependency" data-source-line="28" id="lnk16"><path d="M142,616.7895 C142,634.1495 142,653.3695 142,670.7095" fill="none" id="Timestamp-to-Validation" style="stroke:#181818;stroke-width:1;"/><polygon fill="#181818" points="142,676.7095,146,667.7095,142,671.7095,138,667.7095,142,676.7095" style="stroke:#181818;stroke-width:1;"/></g><!--link Validation to Segmentation--><g class="link" data-entity-1="ent0008" data-entity-2="ent0009" data-link-type="dependency" data-source-line="29" id="lnk17"><path d="M136,715.7895 C136,733.1495 136,752.3695 136,769.7095" fill="none" id="Validation-to-Segmentation" style="stroke:#181818;stroke-width:1;"/><polygon fill="#181818" points="136,775.7095,140,766.7095,136,770.7095,132,766.7095,136,775.7095" style="stroke:#181818;stroke-width:1;"/></g><!--link Segmentation to Storage--><g class="link" data-entity-1="ent0009" data-entity-2="ent0010" data-link-type="dependency" data-source-line="30" id="lnk18"><path d="M136,815.1895 C136,832.0995 136,850.4195 136,868.4595" fill="none" id="Segmentation-to-Storage" style="stroke:#181818;stroke-width:1;"/><polygon fill="#181818" points="136,874.4595,140,865.4595,136,869.4595,132,865.4595,136,874.4595" style="stroke:#181818;stroke-width:1;"/></g><!--link Storage to App--><g class="link" data-entity-1="ent0010" data-entity-2="ent0011" data-link-type="dependency" data-source-line="31" id="lnk19"><path d="M136,922.9695 C136,940.4795 136,958.2095 136,976.7195" fill="none" id="Storage-to-App" style="stroke:#181818;stroke-width:1;"/><polygon fill="#181818" points="136,982.7195,140,973.7195,136,977.7195,132,973.7195,136,982.7195" style="stroke:#181818;stroke-width:1;"/></g><?plantuml-src RLHDZzCm4BtxLunwu4IvSEE0L7PPQQLMMjG2broczYGnTMpBTbeYn7zdxAHRTyMbbUVZpVERvoIT3C5MnqHMsmusCLAC0za4kvUFiFT6fvGJ-ubB1jW4sUj4Ces1X8WdRJq6723sgDmb5xPe8bKPeosboHEua7fN9QGRlBCyQPycvX0O56rdwbv5BOuc7UXtsXZTsS9ByW-5gigZF657Rs44okG2h1uSrtFVWN1O0KPO0lain2iBM6tKe2ryzyQXWkSyf4L9ZSr2Z7CKhO9VxWWfwAwZKE3c1X5v6BE0LT5jFZHsJfA2wCOW2N1Ksa6h3SNIl1G-Mpyc8PQRC9LIzXASv6qK-IcSjQGL_140DUUtXLzjnu8tzYUUgNLXOCfefgXZO_SyrJ87HNc1sjd6Vd6ZLHYcMwomca7k9ntqG37Xu5cQba91sZar6Yejh-dxhXzejC8C3E_WsyYdDC53J_84MvmM1Mz5zyrFJuEdVFSkBtv6cQdDsbLnyLS8Xi0ZHfPloR3irJ9glUkr_zVy6-yRUtME8gFF5AQ2m1aXAWl1Ultvwe75EpbojzZwKBABmFDVYTpqkmcTuvKsbPPbGdtzEusg-TVH9LQeMvVubUYkJ-3QAv57Yloyu96aZepmIMotktNMKa5wfSElC60n2LnO23gZ6J6BtEeGqtjnvCkrckq6CNysm3jjKuGBcwNuA_3pukhZnEspEUSH8i_chgjJWLFGCqCAuCD2wOCWVdkPlFW7?></g></svg>